<svg xmlns="http://www.w3.org/2000/svg" xmlns:xlink="http://www.w3.org/1999/xlink" id="Calque_1" data-name="Calque 1" viewBox="0 0 427.25 352.7"><defs><style>.cls-1{fill:none;}.cls-2{clip-path:url(#clip-path);}.cls-3{fill:#846363;}</style><clipPath id="clip-path" transform="translate(-95.37 -121.29)"><rect class="cls-1" width="595.28" height="595.28"></rect></clipPath></defs><title>logo_fbs-2-noback</title><g class="cls-2"><path class="cls-3" d="M246.54,158.11c-1.93,16.53-7.71,30.84-14.6,45.16,50.12-6.06,109.59-10.19,133.82.55,3.58,1.65.83,6.34-2.75,4.68-48.74-10.46-88.94-7.16-133.54-.55-5.79,11.84-12.12,23.68-17.07,35.8-8.82,21.75-17.08,43.5-24.51,65.53,23.4-6.61,48.18-10.46,60.85-3.31,3,2.48.83,6.34-2.75,4.69-11.29-6.06-36.62-1.38-60.3,5.5-1.93,5.23-3.58,10.74-5.24,16a201.53,201.53,0,0,1-4.95,46c-1.38,12.11-8,72.69-22.58,75.72a3,3,0,0,1-3.58-1.93c-7.43-28.36,9.09-68,17.07-94.17l7.71-25.06a99.75,99.75,0,0,0,0-12.94c-12.94,4.41-24.5,8.81-31.39,11.57-3.85.55-4.68-3.86-1.37-5.51,7.43-3,19.27-7.71,32.49-12.12-1.38-25.88-8.26-50.11-26.16-65.8-14.59-12.67-32.77-15.7-43.51-17.07-2.47-.28-4.13,1.1-6.88.55a4,4,0,0,1-1.93-2.76c.83-6.6,6.61-4.95,11.57-5.78,41.3-7.16,23.4-4.4,64.7-11,13.5-2.21,32.77-5,54-7.71,7.16-14.6,13.49-29.74,15.42-46.54.55-3.85,5.51-3.3,5.51.55m-23.41,50.94c-16.24,2.48-32.76,5.51-50.66,8.26s-36.35,8-54.52,10.19c39.1,8.26,56.72,44.88,61.13,84.53l2.2-.82c8-23.13,16.25-46.26,25.61-68.84,4.68-11.29,10.74-22.3,16.24-33.32M172.47,357.19l-.55,1.93c-6.33,20.1-23.68,66.63-18.17,88.11,9.91-14.05,9.36-35,13.49-50.94.55-1.93-1.1,6.88-.83,5.23,1.93-12.67,4.41-28.09,6.06-44.33" transform="translate(-95.37 -121.29)"></path><path class="cls-3" d="M287.56,184.27c-22.58,47.36-37.72,93.62-53.14,144-1.66,5.78-3.31,11.56-4.68,17.35A91.53,91.53,0,0,1,241,330.21c2.75-3,16.52-15.42,19.54-5,.56,2.48,2.21,5,1.66,7.43-3,14.6-15.15,33-31.39,34.15a4,4,0,0,1-2.76-1.93l-.82-2.2c-.83,1.92-1.1,3.85-1.65,5.5a23.28,23.28,0,0,1-1.66,6.61,2.11,2.11,0,0,1-.27,1.38.27.27,0,0,1-.28-.28c-1.65,1.93-4.4,1.38-5-1.65,0-.27.27-.55.27-.83h-.27c13.49-65.25,35.79-130,63.6-190.53,1.93-3,5.51-2.21,5.51,1.37M228.91,357.74a4.34,4.34,0,0,1,2.75,1.38l.83,1.92c12.39-1.1,26.16-22,22.85-33.59-.27,0-.55-.27-1.1-.27-11.29,5.5-19.82,17.62-25.33,30.56" transform="translate(-95.37 -121.29)"></path><path class="cls-3" d="M301.32,345.9c-5.23,2.75-11.84,5.78-17.89,9.36,1.1,6.06,1.37,11.84.55,16.25-2.48,11-20.93,11.29-25.88,3.58a4.71,4.71,0,0,1-.28-2.76c4.41-8.53,11.84-14.86,20.1-20.1-2.75-9.36-7.43-19.55-3.58-26.43,1.1-1.65,2.2-2.2,3.85-1.65l5.51,1.93c2.76,2.2,1.38,5.5-1.92,5.23-1.11-.28-1.93-.83-2.76-1.1,0,4.13,1.93,11.56,3.58,19.55,5.51-3.31,11-6.06,16.25-8.82,0,0,37.79-19.29,43.33-19.63h0l4.16,3L342.11,329s-5.21-.24-40.79,16.92m-22,11.84c-6.61,4.41-12.39,9.36-15.7,15.42,2.76,5.78,16.25-.83,16.25-10.46a39.7,39.7,0,0,0-.55-5" transform="translate(-95.37 -121.29)"></path><path class="cls-3" d="M400.22,262.66s8.94-10.9-3.5-15.17-21.38,5.07-17.1,12.84c0,0,13.6-5,20.6,2.33" transform="translate(-95.37 -121.29)"></path><path class="cls-3" d="M522.62,221.56c-31.13,16.26-47.54-12.2-47.54-12.2s-48.12-6.21-49.15-29.49c-1-22.64,32.2-28.65,45.94-26.59,3.65,21.19-3.93,50.89-3.93,50.89,11.29-14.88,11.5-38.92,10.87-50.24,7.7-.51,8.93-6.15,8.93-6.15V129.14s-59.94-20.11-71.2,4c0,0-31,12.06-2.42,59.94l21.73,32.18s16.49,23.74,6.84,31C436.77,260.7,406.78,252,409,265c1.23,7.18,10.2,12.45,16,15.4,9.58,4.9,4.56,11.24-3.61,13.39-10.63,2.8-17.72-6.73-28.17-2.93C384.47,294,380,311.31,343.58,321l-3.22.67-.53,7.74a167.33,167.33,0,0,1,25.78-3.52,99.23,99.23,0,0,1,21,.54c4.37.65,9.49,1.29,13.3,4,3.26,2.32,5,10.17,9.33,10.08,4-.08,17.22-12,15.39,11.66-.64,8.28-9.78,5.83-15.11,4.31-6.59-1.87-12.29,1.71-18.46,4-14.07,5.15-26,2.24-28.8,12.63s26.49,19.46,26.49,19.46,53.32,16.06,9.21,59.89c-21.49-19.18-46-29.61-69.65-34.87-52.31-11.7-99.89,2-99.89,2,30.46-4.3,55.82-3.27,76.79.72A179.68,179.68,0,0,1,345,433.2C379.94,450.1,393,474,393,474s.13,0,.38-.06A20.7,20.7,0,0,0,406,467.48c6.52-6.72,10.3-18,14.24-26.15q9.08-18.75,17.18-38,7.49-17.64,14.25-35.58,3.89-10.29,7.54-20.68c.44-1.26,2.82-9.35,4.76-15.25l.21.15c.81-2.22,1.57-4.36,2.3-6.46h0c16-45.91,13.21-63.91,13.21-63.91.91-10.43-10.51-26.83-13.34-30.71,37.6,8.8,56.22-9.35,56.22-9.35m-83.76,92.32c-1.41,3.61-6.41,10.74-6.41,10.74S419.1,339,411.39,327.16s-6.42-13-29.05-8.94a.65.65,0,0,0,0-.6c0-2.83,1-15,16.91-19.52,5.95-1.7,7.81,2.32,12.58,3.9,5.67,1.86,10.65-2.05,16.18-2.6,15.52-1.55,10.86,14.48,10.86,14.48" transform="translate(-95.37 -121.29)"></path></g></svg>